Coordinates
version=1
nRows=11
nColumns=36
inDegrees=yes

Units are S.I. units (second, meters, Newtons, ...)
If the header above contains a line with 'inDegrees', this indicates whether rotational values are in degrees (yes) or radians (no).

endheader
time	pelvis_tilt	pelvis_list	pelvis_rotation	pelvis_tx	pelvis_ty	pelvis_tz	hip_flexion_r	hip_adduction_r	hip_rotation_r	knee_angle_r	knee_angle_r_beta	ankle_angle_r	subtalar_angle_r	mtp_angle_r	hip_flexion_l	hip_adduction_l	hip_rotation_l	knee_angle_l	knee_angle_l_beta	ankle_angle_l	subtalar_angle_l	mtp_angle_l	lumbar_extension	lumbar_bending	lumbar_rotation	arm_flex_r	arm_add_r	arm_rot_r	elbow_flex_r	pro_sup_r	arm_flex_l	arm_add_l	arm_rot_l	elbow_flex_l	pro_sup_l
     29.50000000	      8.73776971	     -3.09380383	   -177.69084990	      0.32012758	      0.93319548	      0.74551136	     35.41016020	     -9.76389773	     -3.00037720	     20.78503261	      0.36276725	     -9.09282621	    -14.47542632	     -7.49999987	      7.67053744	      1.81730066	      4.37792156	     38.34482117	      0.66924338	      7.46469619	     -9.15259493	     -7.49999987	    -12.76609549	     -1.15864391	     -5.55826667	      6.25924378	     -9.01961365	    -10.90330498	     23.78764059	     87.52250164	     25.77047973	    -14.25217697	      9.27880852	     19.86578194	     84.63883523
     29.51666670	      8.91505979	     -2.86502738	   -178.32099136	      0.31751471	      0.93044363	      0.74317792	     36.06573175	     -9.12045905	     -2.78424299	     22.87834449	      0.39930244	     -9.36356578	    -17.21405355	     -7.49999987	      8.18786101	      1.50956553	      4.47584983	     42.02093882	      0.73340374	      5.83889503	    -10.52309760	     -7.49999987	    -12.56339658	     -0.68059664	     -5.64938314	      6.29959555	     -9.42586273	    -10.32940017	     23.37505912	     87.66999393	     24.27544597	    -14.04219804	      5.03124975	     20.09074227	     85.49220678
     29.53333330	      9.08724600	     -2.65447804	   -178.78253833	      0.31336277	      0.92980578	      0.74065423	     36.34646555	     -8.62646372	     -2.80897560	     24.49679595	      0.42754975	    -10.03640202	    -19.12437250	     -7.49999987	      8.96514644	      1.36351115	      4.76757025	     46.01286798	      0.80307604	      3.02394057	    -12.32492432	     -7.49999987	    -12.29394386	     -0.26223113	     -5.11328834	      5.99202290	     -9.99676667	    -10.20717283	     23.14898954	     87.70712129	     23.28489850	    -13.75238818	      4.87044538	     19.70958041	     85.77404723
     29.55000000	      9.03673462	     -2.26953116	   -179.19035067	      0.30680354	      0.92843919	      0.73525394	     35.99281425	     -7.84522609	     -2.74323548	     25.70388539	      0.44861743	    -10.83576037	    -21.12749560	     -7.49999987	      9.64439316	      0.84379206	      4.82246665	     50.04324585	      0.87341941	     -0.31974849	    -13.50018355	     -7.49999987	    -11.98084965	      0.21566670	     -4.42797059	      5.67305411	    -10.54978730	     -9.80979050	     22.79550767	     87.82523301	     22.16614875	    -13.31731407	      4.50371690	     18.92197055	     86.08458398
     29.56666670	      8.77899872	     -1.57873861	   -179.59929837	      0.29866784	      0.92516022	      0.72587448	     35.24484770	     -6.50502512	     -2.41479555	     27.09737593	      0.47293843	    -11.06298592	    -23.45996139	     -7.49999987	     10.21669289	     -0.39124161	      4.62178973	     54.13444256	      0.94482426	     -3.62797052	    -13.73783399	     -7.49999987	    -11.47349088	      0.78303589	     -3.51644017	      5.32940055	    -11.05023858	     -8.54443544	     21.85264200	     87.39790818	     20.81560939	    -12.71925544	      3.51113871	     17.49247676	     85.94444055
     29.58333330	      8.27459586	     -0.53313485	   -179.73029511	      0.29185220	      0.92135209	      0.71543485	     34.17642588	     -4.75925137	     -2.25956849	     28.95086190	      0.50528786	     -9.72447596	    -25.17157344	     -7.49999987	     10.92657737	     -2.20378379	      4.70318708	     58.57844471	      1.02238673	     -6.99059547	    -13.89059177	     -7.49999987	    -11.06316454	      1.58801254	     -2.81586844	      4.85942111	    -11.57703646	     -5.74444479	     21.39838066	     87.94089035	     19.21392887	    -12.23374650	      1.52974088	     16.06511022	     88.06341107
     29.60000000	      7.91112021	      0.42356217	   -179.54576173	      0.28845764	      0.91785852	      0.70757650	     33.48659648	     -3.13636844	     -1.92901673	     31.26359751	      0.54565271	     -7.41474609	    -26.59963113	     -7.49999987	     12.42810391	     -3.84708360	      5.10267000	     63.43878903	      1.10721574	     -9.54004930	    -14.12464615	     -7.49999987	    -10.57335383	      2.20612851	     -2.09827394	      4.18735464	    -11.60855013	     -5.29188501	     21.23151956	     88.02575969	     17.74860263	    -11.98148298	      0.85882317	     14.97564028	     88.42546345
     29.61666670	      7.02241727	      0.96478026	   -179.27255775	      0.28936300	      0.91611456	      0.70309102	     32.64097806	     -1.98094220	     -1.29295334	     33.81270125	      0.59014297	     -5.35175051	    -28.00919937	     -7.49999987	     14.00220169	     -4.78377322	      5.57601172	     68.38003677	      1.19345678	    -10.71852363	    -14.49488391	     -7.49999987	    -11.19628475	      2.33113410	     -1.54081951	      4.01003767	    -11.43146871	     -5.10890945	     21.29597058	     88.04612131	     16.77906583	    -12.03503252	      0.67589090	     14.54514498	     88.50277415
     29.63333330	      7.47245855	      1.25886420	   -178.43145584	      0.29408338	      0.91488536	      0.69979180	     33.42866848	     -1.49208403	     -1.22324018	     36.30845822	      0.63370214	     -3.28403240	    -28.55471011	     -7.49999987	     18.11759203	     -5.03625020	      6.58309909	     73.64218292	      1.28529856	    -10.54558292	    -15.20833272	     -7.49999987	    -10.48150510	      2.25428661	     -1.32758088	      3.31232082	    -11.39235781	     -4.51603909	     22.39471396	     88.14571362	     16.00046202	    -11.90319477	      0.06800023	     13.87793741	     89.04197187
     29.65000000	      7.28217146	      1.00813544	   -177.66489605	      0.30097666	      0.91895031	      0.69409007	     33.34151613	     -1.32900017	     -0.90923210	     38.16448190	      0.66609587	     -1.70291668	    -28.96839988	     -7.49999987	     22.09719234	     -4.84224156	      7.09183764	     78.02319503	      1.36176165	     -9.80520610	    -15.57060254	     -7.49999987	    -11.12167217	      1.41839375	     -0.65110790	      2.87004078	    -11.39218655	     -3.65042261	     24.14641897	     87.12271201	     16.04046996	    -11.85501319	     -0.71575387	     13.66402538	     91.58222216
     29.66666670	      7.07503355	      0.60221630	   -176.83986865	      0.30508878	      0.92901952	      0.68854230	     32.52917766	     -1.25604376	     -0.86852964	     38.95296953	      0.67985757	     -0.54968553	    -28.97182068	     -7.49999987	     25.99524419	     -4.66654893	      7.27796859	     80.79630488	      1.41016154	     -9.34935293	    -15.52272526	     -7.49999987	    -11.78151548	      0.38231104	     -0.47383560	      3.14592152	    -10.99018629	     -3.96282210	     25.14559522	     86.03594084	     15.99215354	    -12.06520394	     -1.19223199	     13.50466211	     91.50880048
